<svg width="95" height="30" viewBox="0 0 95 30" fill="none" xmlns="http://www.w3.org/2000/svg">
<path d="M80.016 23.4304L80.0438 15.3267H80.989L86.9938 7.6817H94.6943L85.7706 18.6349H83.9775L80.016 23.4304ZM73.8861 29.032V0.564926H80.6832V29.032H73.8861ZM87.1467 29.032L81.5589 20.1639L86.0347 15.3406L95.0001 29.032H87.1467Z" fill="#4166AF"/>
<path d="M59.6178 29.4352C57.3753 29.4352 55.4478 28.9765 53.8354 28.0591C52.2323 27.1325 50.9952 25.8444 50.1241 24.1949C49.2623 22.5362 48.8314 20.6134 48.8314 18.4265C48.8314 16.2303 49.2623 14.3074 50.1241 12.658C50.9952 10.9992 52.2323 9.71119 53.8354 8.79379C55.4478 7.86713 57.3753 7.40379 59.6178 7.40379C61.8603 7.40379 63.7831 7.86713 65.3863 8.79379C66.9987 9.71119 68.2358 10.9992 69.0976 12.658C69.9686 14.3074 70.4042 16.2303 70.4042 18.4265C70.4042 20.6134 69.9686 22.5362 69.0976 24.1949C68.2358 25.8444 66.9987 27.1325 65.3863 28.0591C63.7831 28.9765 61.8603 29.4352 59.6178 29.4352ZM59.6595 24.3061C60.475 24.3061 61.1653 24.0559 61.7306 23.5555C62.2958 23.0551 62.7267 22.3601 63.0233 21.4705C63.3291 20.581 63.482 19.5524 63.482 18.3848C63.482 17.1986 63.3291 16.1608 63.0233 15.2712C62.7267 14.3816 62.2958 13.6866 61.7306 13.1862C61.1653 12.6858 60.475 12.4356 59.6595 12.4356C58.8162 12.4356 58.1027 12.6858 57.5189 13.1862C56.9444 13.6866 56.5042 14.3816 56.1984 15.2712C55.9019 16.1608 55.7536 17.1986 55.7536 18.3848C55.7536 19.5524 55.9019 20.581 56.1984 21.4705C56.5042 22.3601 56.9444 23.0551 57.5189 23.5555C58.1027 24.0559 58.8162 24.3061 59.6595 24.3061Z" fill="#4166AF"/>
<path d="M35.3833 29.4352C33.1408 29.4352 31.2133 28.9765 29.6009 28.0591C27.9978 27.1325 26.7607 25.8444 25.8896 24.1949C25.0278 22.5362 24.5969 20.6134 24.5969 18.4265C24.5969 16.2303 25.0278 14.3074 25.8896 12.658C26.7607 10.9992 27.9978 9.71119 29.6009 8.79379C31.2133 7.86713 33.1408 7.40379 35.3833 7.40379C37.6258 7.40379 39.5486 7.86713 41.1518 8.79379C42.7642 9.71119 44.0013 10.9992 44.8631 12.658C45.7341 14.3074 46.1697 16.2303 46.1697 18.4265C46.1697 20.6134 45.7341 22.5362 44.8631 24.1949C44.0013 25.8444 42.7642 27.1325 41.1518 28.0591C39.5486 28.9765 37.6258 29.4352 35.3833 29.4352ZM35.425 24.3061C36.2405 24.3061 36.9308 24.0559 37.4961 23.5555C38.0613 23.0551 38.4922 22.3601 38.7888 21.4705C39.0946 20.581 39.2475 19.5524 39.2475 18.3848C39.2475 17.1986 39.0946 16.1608 38.7888 15.2712C38.4922 14.3816 38.0613 13.6866 37.4961 13.1862C36.9308 12.6858 36.2405 12.4356 35.425 12.4356C34.5817 12.4356 33.8682 12.6858 33.2844 13.1862C32.7099 13.6866 32.2697 14.3816 31.9639 15.2712C31.6674 16.1608 31.5191 17.1986 31.5191 18.3848C31.5191 19.5524 31.6674 20.581 31.9639 21.4705C32.2697 22.3601 32.7099 23.0551 33.2844 23.5555C33.8682 24.0559 34.5817 24.3061 35.425 24.3061Z" fill="#4166AF"/>
<path d="M0.379578 29.032V0.56485H7.17666V11.3373H7.31566C7.59366 10.6887 7.98749 10.0632 8.49715 9.46082C9.01608 8.85849 9.67402 8.36736 10.4709 7.98743C11.2771 7.59823 12.2409 7.40363 13.3621 7.40363C14.8448 7.40363 16.2302 7.79283 17.5182 8.57122C18.8156 9.34962 19.8627 10.5497 20.6596 12.1713C21.4565 13.793 21.855 15.8594 21.855 18.3707C21.855 20.7893 21.4704 22.814 20.7013 24.445C19.9415 26.0759 18.9129 27.2991 17.6155 28.1146C16.3275 28.93 14.8958 29.3378 13.3204 29.3378C12.2455 29.3378 11.3142 29.1617 10.5265 28.8096C9.73888 28.4574 9.07632 27.9941 8.53885 27.4196C8.01065 26.845 7.60292 26.2288 7.31566 25.5709H7.10716V29.032H0.379578ZM7.03766 18.3568C7.03766 19.5059 7.19056 20.5067 7.49636 21.3592C7.81142 22.2117 8.26085 22.8743 8.84465 23.3469C9.43772 23.8102 10.1466 24.0419 10.9713 24.0419C11.8053 24.0419 12.5142 23.8102 13.098 23.3469C13.6818 22.8743 14.122 22.2117 14.4185 21.3592C14.7243 20.5067 14.8772 19.5059 14.8772 18.3568C14.8772 17.2077 14.7243 16.2116 14.4185 15.3683C14.122 14.525 13.6818 13.8717 13.098 13.4084C12.5235 12.9451 11.8146 12.7134 10.9713 12.7134C10.1373 12.7134 9.42845 12.9404 8.84465 13.3945C8.26085 13.8486 7.81142 14.4972 7.49636 15.3405C7.19056 16.1838 7.03766 17.1892 7.03766 18.3568Z" fill="#4166AF"/>
</svg>
