<svg width="17" height="16" viewBox="0 0 17 16" fill="none" xmlns="http://www.w3.org/2000/svg">
<g clip-path="url(#clip0_20_589)">
<path d="M16.344 8.18429C16.344 7.64047 16.2999 7.09371 16.2058 6.55872H8.65997V9.63937H12.9811C12.8018 10.6329 12.2257 11.5119 11.382 12.0704V14.0693H13.96C15.4739 12.6759 16.344 10.6182 16.344 8.18429Z" fill="#4285F4"/>
<path d="M8.65999 16.0005C10.8176 16.0005 12.6372 15.2921 13.9629 14.0692L11.385 12.0703C10.6677 12.5583 9.74174 12.8346 8.66293 12.8346C6.57584 12.8346 4.80623 11.4266 4.17128 9.53351H1.51099V11.5941C2.86906 14.2956 5.63518 16.0005 8.65999 16.0005Z" fill="#34A853"/>
<path d="M4.16833 9.53356C3.83322 8.53999 3.83322 7.46411 4.16833 6.47054V4.40991H1.51097C0.376306 6.67043 0.376306 9.33367 1.51097 11.5942L4.16833 9.53356Z" fill="#FBBC04"/>
<path d="M8.65999 3.16644C9.80053 3.1488 10.9029 3.57798 11.7289 4.36578L14.0129 2.08174C12.5667 0.72367 10.6471 -0.0229773 8.65999 0.000539111C5.63518 0.000539111 2.86906 1.70548 1.51099 4.40987L4.16834 6.4705C4.80035 4.57449 6.5729 3.16644 8.65999 3.16644Z" fill="#EA4335"/>
</g>
<defs>
<clipPath id="clip0_20_589">
<rect width="16" height="16" fill="white" transform="translate(0.5)"/>
</clipPath>
</defs>
</svg>
