<svg width="108" height="30" viewBox="0 0 108 30" fill="none" xmlns="http://www.w3.org/2000/svg">
<path d="M101.755 9.22149H107.118L100.894 28.7926H96.0796L92.4786 16.9325L88.8775 28.7926H84.063L77.8393 9.22149H83.2018L86.5289 21.2382L90.0909 9.22149H94.8662L98.4282 21.2773L101.755 9.22149Z" fill="#2543B1"/>
<path d="M71.634 9.22149H76.9965L70.7728 28.7926H65.9583L62.3572 16.9325L58.7562 28.7926H53.9417L47.718 9.22149H53.0805L56.4076 21.2382L59.9696 9.22149H64.7449L68.3069 21.2773L71.634 9.22149Z" fill="#2543B1"/>
<path d="M43.7953 26.3658C41.786 28.349 39.333 29.3406 36.4365 29.3406C33.54 29.3406 31.0871 28.349 29.0778 26.3658C27.0946 24.3565 26.1029 21.9036 26.1029 19.0071C26.1029 16.1105 27.0946 13.6707 29.0778 11.6875C31.0871 9.67816 33.54 8.6735 36.4365 8.6735C39.333 8.6735 41.786 9.67816 43.7953 11.6875C45.8046 13.6707 46.8092 16.1105 46.8092 19.0071C46.8092 21.9036 45.8046 24.3565 43.7953 26.3658ZM32.6397 22.8822C33.6574 23.8999 34.923 24.4087 36.4365 24.4087C37.95 24.4087 39.2156 23.8999 40.2333 22.8822C41.251 21.8645 41.7599 20.5728 41.7599 19.0071C41.7599 17.4414 41.251 16.1497 40.2333 15.132C39.2156 14.1143 37.95 13.6054 36.4365 13.6054C34.923 13.6054 33.6574 14.1143 32.6397 15.132C31.6481 16.1497 31.1523 17.4414 31.1523 19.0071C31.1523 20.5728 31.6481 21.8645 32.6397 22.8822Z" fill="#2543B1"/>
<path d="M12.0816 5.69879C9.31554 5.49003 7.93251 6.59906 7.93251 9.02588V9.22159H12.0816V14.0752H7.93251V28.7927H2.88315V14.0752H0.0649103V9.22159H2.88315V9.02588C2.88315 6.25983 3.65295 4.15919 5.19255 2.72397C6.73215 1.28876 9.02849 0.662481 12.0816 0.845144V5.69879Z" fill="#2543B1"/>
<path d="M16.7705 29.2331V0.659256H21.8199V29.2331H16.7705Z" fill="#2543B1"/>
</svg>
